<?xml version="1.0" encoding="utf-8"?>
<!-- Generator: Adobe Illustrator 23.0.1, SVG Export Plug-In . SVG Version: 6.00 Build 0)  -->
<svg version="1.1" id="Layer_1" xmlns="http://www.w3.org/2000/svg" xmlns:xlink="http://www.w3.org/1999/xlink" x="0px" y="0px"
	 viewBox="0 0 75 75" style="enable-background:new 0 0 75 75;" xml:space="preserve">
<style type="text/css">
	.st0{fill:none;}
	.st1{enable-background:new    ;}
	.st2{fill:#FFFFFF;}
	.st3{fill:none;stroke:#FFFFFF;stroke-width:0.25;stroke-miterlimit:10;}
</style>
<g>
	<circle cx="37.5" cy="37.5" r="37.5"/>
	<rect x="2.3" y="25" class="st0" width="68.3" height="35.7"/>
	<g class="st1">
		<path class="st2" d="M16.9,21.6c0.9,0,1.5,0.5,1.5,1.3c0,1.2-1.8,2.1-3.5,2.6c-1.1,2.7-3.5,10.5-3.5,12.8c0,1.3,0.4,2.3,1.5,2.3
			c2.6,0,4.6-4.8,6.5-9.5c2-4.9,4.1-9.8,7.2-9.8c0.3,0,0.5,0.2,0.5,0.5c0,0.3-0.2,0.5-0.5,0.5c-2.4,0-4.3,4.5-6.2,9.2
			c-2.1,5-4.2,10.1-7.5,10.1c-1.9,0-2.5-1.5-2.5-3.3c0-2.7,2.2-9.6,3.3-12.7c-0.5,0.1-1,0.2-1.5,0.2c-3.1,0.5-7.3,1.1-7.3,4
			c0,1.3,0.9,2.2,1.9,2.2c0.3,0,0.5,0.2,0.5,0.5c0,0.3-0.2,0.5-0.5,0.5c-1.7,0-3-1.5-3-3.3c0-3.7,4.6-4.5,8.2-5
			c0.7-0.1,1.5-0.2,2.1-0.4C14.6,23.2,15.6,21.6,16.9,21.6z M17.2,23c0-0.2-0.1-0.3-0.3-0.3c-0.5,0-1.2,0.8-1.6,1.7
			C16.3,24.1,17.2,23.4,17.2,23z"/>
		<path class="st2" d="M27.3,35.4c0,0.1,0,0.1,0,0.2c-1.2,2.7-2.5,5.2-4.5,5.2c-1.2,0-1.8-0.9-1.8-2.1c0.1-1.9,1.8-6.4,2.9-9.2
			c0.1-0.2,0.3-0.3,0.5-0.3c0.3,0,0.6,0.2,0.5,0.7c-2.4,6.7-2.8,7.9-2.8,8.9c0,0.7,0.2,1,0.7,1c1.5,0,2.7-2.5,3.6-4.6
			c0.1-0.2,0.3-0.3,0.5-0.3c0.1,0,0.1,0,0.2,0C27.2,35,27.3,35.2,27.3,35.4z M24.5,27c0-0.5,0.4-0.8,0.9-0.8s0.8,0.4,0.8,0.8
			s-0.4,0.8-0.8,0.8S24.5,27.5,24.5,27z"/>
		<path class="st2" d="M36.7,35.4c0,0.2-0.3,0.8-0.5,1.1c-0.8,1.6-1.8,2.7-3.4,2.7c-0.7,0-1.3-0.2-1.7-0.7c-1,1.4-2.2,2.3-3.7,2.3
			c-1.3,0-1.9-0.7-1.9-2.2c0-1.1,0.5-2.3,0.8-3.2c0.1-0.4,2.9-8.2,2.9-8.4c0.1-0.5,0.3-1.1,0.5-1.6c0.1-0.2,0.3-0.3,0.5-0.3
			c0.4,0,0.6,0.4,0.5,0.7l-0.5,1.6c-0.4,1.2-0.6,1.8-1,3c0.7-0.7,1.5-1.2,2.4-1.2c1.6,0,2.1,1.2,2.1,2.8c0,1.7-0.8,3.9-1.8,5.6
			c0,0,0,0.1-0.1,0.2c0.3,0.3,0.7,0.5,1.2,0.5c1.2,0,1.9-1,2.5-2.1c0.4-0.7,0.4-1.2,0.8-1.2c0.1,0,0.1,0,0.2,0
			C36.6,35,36.7,35.2,36.7,35.4z M31.5,35.5c0,0.1-0.1,0.3-0.1,0.4c0.6-1.3,1.1-2.9,1.1-4.1c0-1-0.1-1.7-1-1.7c-2,0-3.5,3.7-4.5,6.2
			c-0.4,1-0.5,1.7-0.5,2.2c0,0.8,0.3,1.2,0.9,1.2c1.2,0,2.2-0.9,3.1-2.2c-0.1-0.3-0.2-0.7-0.2-1.1c0-0.4,0-0.7,0.2-1.2
			c0.1-0.2,0.3-0.4,0.5-0.4C31.3,34.9,31.5,35.2,31.5,35.5z"/>
		<path class="st2" d="M45.8,35.4c0,0.1,0,0.1,0,0.2c-1.6,3.7-2.8,5.2-4.5,5.2h0c-1.2,0-1.7-0.9-1.7-2.1c0-0.5,0.1-1,0.2-1.6
			c0.2-0.8,1.3-4.1,1.5-4.6c-1.9-0.6-2.1-0.7-2.7-1c-0.1,0.3-0.3,0.6-2.2,4.9c-0.1,0.2-0.3,0.3-0.4,0.3c-0.1,0-0.2,0-0.2,0
			c-0.2-0.1-0.3-0.3-0.3-0.5c0-0.1,0-0.1,0-0.2l2-4.3l0.3-0.7c-0.7-0.5-1.3-1.2-1.3-2.1c0-1,0.7-1.6,1.5-1.6c0.9,0,1.4,0.6,1.4,1.6
			c0,0.4-0.1,0.6-0.4,1.6c0.7,0.3,1.5,0.6,2.2,0.9c0.3,0.1,0.7,0.2,0.9,0.3c0.3,0.1,0.4,0.4,0.3,0.7c-0.3,0.8-1.5,4.3-1.6,4.9
			c-0.1,0.5-0.2,0.9-0.2,1.4c0,0.6,0.2,1,0.7,1c1.2,0,2.1-1.4,3.5-4.6c0.1-0.2,0.3-0.3,0.5-0.3c0.1,0,0.1,0,0.2,0
			C45.6,35,45.8,35.2,45.8,35.4z M37.8,28.4c-0.3,0-0.5,0.2-0.5,0.5c0,0.4,0.2,0.8,0.6,1.1c0.1-0.3,0.3-0.8,0.3-1
			C38.2,28.5,38,28.4,37.8,28.4z"/>
		<path class="st2" d="M55.7,35.4c0,0.1,0,0.1,0,0.2l0,0.1c-0.9,2.1-2.3,5.1-4.5,5.1c-1.2,0-1.8-0.9-1.8-2.1c-1,1.4-2,2.1-3.1,2.1
			c-1.4,0-2-1.2-2-2.7c0-3.2,2.5-9,5.4-9c1,0,1.8,0.4,2.2,1.3c0.1-0.4,0.3-0.8,0.4-1.1c0.1-0.2,0.3-0.3,0.5-0.3
			c0.4,0,0.6,0.4,0.5,0.7L52.1,33c-0.9,2.5-1.7,4.6-1.7,5.7c0,0.7,0.2,1,0.7,1c1.5,0,2.7-2.7,3.5-4.5l0-0.1c0.1-0.2,0.3-0.3,0.5-0.3
			c0.1,0,0.1,0,0.2,0C55.5,35,55.7,35.2,55.7,35.4z M50.7,33.5l0.6-1.6c0-1.1-0.7-1.8-1.6-1.8c-2.3,0-4.4,5.3-4.4,7.8
			c0,1.1,0.2,1.8,1,1.8C48.2,39.7,49.7,36.1,50.7,33.5z"/>
		<path class="st2" d="M65.5,35.4c0,0.1,0,0.1,0,0.2c-1.7,3.7-2.8,5.2-4.5,5.2c-1.2,0-1.8-0.9-1.8-2.1c0-2.3,1.9-5.2,1.9-7.3
			c0-0.7-0.3-1.3-1.3-1.3c-1.5,0-3.4,3.3-4.2,5.4l-1.7,4.9c-0.1,0.3-0.4,0.4-0.7,0.3c-0.3-0.1-0.4-0.4-0.3-0.7
			c1.3-3.5,2.8-8,3.8-10.6c0.1-0.2,0.3-0.3,0.5-0.3c0.4,0,0.6,0.4,0.5,0.7l-0.2,0.5c0.7-0.7,1.5-1.2,2.3-1.2c1.8,0,2.3,1,2.3,2.3
			c0,2.2-1.9,5.4-1.9,7.3c0,0.7,0.2,1,0.7,1c1.2,0,2-1.3,3.5-4.6c0.1-0.2,0.3-0.3,0.5-0.3c0.1,0,0.1,0,0.2,0
			C65.4,35,65.5,35.2,65.5,35.4z"/>
		<path class="st2" d="M70.6,35.4c0,0.1,0,0.1,0,0.2c-1.4,3.1-2.8,5.2-5.1,5.2c-1.2,0-1.8-0.9-1.8-2.1c0-0.9,0.6-3.1,1.4-5.1
			l1.3-3.5h-1.6c-0.3,0-0.5-0.2-0.5-0.5c0-0.3,0.2-0.5,0.5-0.5h1.9c0-0.1,1.3-3.6,1.3-3.7c0.1-0.2,0.3-0.3,0.5-0.3
			c0.4,0,0.6,0.4,0.5,0.7c0.1-0.1-1,2.9-1.2,3.3h1.6c0.3,0,0.5,0.2,0.5,0.5c0,0.3-0.2,0.5-0.5,0.5h-2c-0.1,0.5-0.6,1.6-1.4,3.9
			c-1,2.9-1.3,4-1.3,4.7c0,0.7,0.3,1,0.8,1c1.8,0,3-2,4.1-4.6c0.1-0.2,0.3-0.3,0.5-0.3c0.1,0,0.1,0,0.2,0
			C70.5,35,70.6,35.2,70.6,35.4z"/>
	</g>
	<g class="st1">
		<path class="st3" d="M16.9,21.6c0.9,0,1.5,0.5,1.5,1.3c0,1.2-1.8,2.1-3.5,2.6c-1.1,2.7-3.5,10.5-3.5,12.8c0,1.3,0.4,2.3,1.5,2.3
			c2.6,0,4.6-4.8,6.5-9.5c2-4.9,4.1-9.8,7.2-9.8c0.3,0,0.5,0.2,0.5,0.5c0,0.3-0.2,0.5-0.5,0.5c-2.4,0-4.3,4.5-6.2,9.2
			c-2.1,5-4.2,10.1-7.5,10.1c-1.9,0-2.5-1.5-2.5-3.3c0-2.7,2.2-9.6,3.3-12.7c-0.5,0.1-1,0.2-1.5,0.2c-3.1,0.5-7.3,1.1-7.3,4
			c0,1.3,0.9,2.2,1.9,2.2c0.3,0,0.5,0.2,0.5,0.5c0,0.3-0.2,0.5-0.5,0.5c-1.7,0-3-1.5-3-3.3c0-3.7,4.6-4.5,8.2-5
			c0.7-0.1,1.5-0.2,2.1-0.4C14.6,23.2,15.6,21.6,16.9,21.6z M17.2,23c0-0.2-0.1-0.3-0.3-0.3c-0.5,0-1.2,0.8-1.6,1.7
			C16.3,24.1,17.2,23.4,17.2,23z"/>
		<path class="st3" d="M27.3,35.4c0,0.1,0,0.1,0,0.2c-1.2,2.7-2.5,5.2-4.5,5.2c-1.2,0-1.8-0.9-1.8-2.1c0.1-1.9,1.8-6.4,2.9-9.2
			c0.1-0.2,0.3-0.3,0.5-0.3c0.3,0,0.6,0.2,0.5,0.7c-2.4,6.7-2.8,7.9-2.8,8.9c0,0.7,0.2,1,0.7,1c1.5,0,2.7-2.5,3.6-4.6
			c0.1-0.2,0.3-0.3,0.5-0.3c0.1,0,0.1,0,0.2,0C27.2,35,27.3,35.2,27.3,35.4z M24.5,27c0-0.5,0.4-0.8,0.9-0.8s0.8,0.4,0.8,0.8
			s-0.4,0.8-0.8,0.8S24.5,27.5,24.5,27z"/>
		<path class="st3" d="M36.7,35.4c0,0.2-0.3,0.8-0.5,1.1c-0.8,1.6-1.8,2.7-3.4,2.7c-0.7,0-1.3-0.2-1.7-0.7c-1,1.4-2.2,2.3-3.7,2.3
			c-1.3,0-1.9-0.7-1.9-2.2c0-1.1,0.5-2.3,0.8-3.2c0.1-0.4,2.9-8.2,2.9-8.4c0.1-0.5,0.3-1.1,0.5-1.6c0.1-0.2,0.3-0.3,0.5-0.3
			c0.4,0,0.6,0.4,0.5,0.7l-0.5,1.6c-0.4,1.2-0.6,1.8-1,3c0.7-0.7,1.5-1.2,2.4-1.2c1.6,0,2.1,1.2,2.1,2.8c0,1.7-0.8,3.9-1.8,5.6
			c0,0,0,0.1-0.1,0.2c0.3,0.3,0.7,0.5,1.2,0.5c1.2,0,1.9-1,2.5-2.1c0.4-0.7,0.4-1.2,0.8-1.2c0.1,0,0.1,0,0.2,0
			C36.6,35,36.7,35.2,36.7,35.4z M31.5,35.5c0,0.1-0.1,0.3-0.1,0.4c0.6-1.3,1.1-2.9,1.1-4.1c0-1-0.1-1.7-1-1.7c-2,0-3.5,3.7-4.5,6.2
			c-0.4,1-0.5,1.7-0.5,2.2c0,0.8,0.3,1.2,0.9,1.2c1.2,0,2.2-0.9,3.1-2.2c-0.1-0.3-0.2-0.7-0.2-1.1c0-0.4,0-0.7,0.2-1.2
			c0.1-0.2,0.3-0.4,0.5-0.4C31.3,34.9,31.5,35.2,31.5,35.5z"/>
		<path class="st3" d="M45.8,35.4c0,0.1,0,0.1,0,0.2c-1.6,3.7-2.8,5.2-4.5,5.2h0c-1.2,0-1.7-0.9-1.7-2.1c0-0.5,0.1-1,0.2-1.6
			c0.2-0.8,1.3-4.1,1.5-4.6c-1.9-0.6-2.1-0.7-2.7-1c-0.1,0.3-0.3,0.6-2.2,4.9c-0.1,0.2-0.3,0.3-0.4,0.3c-0.1,0-0.2,0-0.2,0
			c-0.2-0.1-0.3-0.3-0.3-0.5c0-0.1,0-0.1,0-0.2l2-4.3l0.3-0.7c-0.7-0.5-1.3-1.2-1.3-2.1c0-1,0.7-1.6,1.5-1.6c0.9,0,1.4,0.6,1.4,1.6
			c0,0.4-0.1,0.6-0.4,1.6c0.7,0.3,1.5,0.6,2.2,0.9c0.3,0.1,0.7,0.2,0.9,0.3c0.3,0.1,0.4,0.4,0.3,0.7c-0.3,0.8-1.5,4.3-1.6,4.9
			c-0.1,0.5-0.2,0.9-0.2,1.4c0,0.6,0.2,1,0.7,1c1.2,0,2.1-1.4,3.5-4.6c0.1-0.2,0.3-0.3,0.5-0.3c0.1,0,0.1,0,0.2,0
			C45.6,35,45.8,35.2,45.8,35.4z M37.8,28.4c-0.3,0-0.5,0.2-0.5,0.5c0,0.4,0.2,0.8,0.6,1.1c0.1-0.3,0.3-0.8,0.3-1
			C38.2,28.5,38,28.4,37.8,28.4z"/>
		<path class="st3" d="M55.7,35.4c0,0.1,0,0.1,0,0.2l0,0.1c-0.9,2.1-2.3,5.1-4.5,5.1c-1.2,0-1.8-0.9-1.8-2.1c-1,1.4-2,2.1-3.1,2.1
			c-1.4,0-2-1.2-2-2.7c0-3.2,2.5-9,5.4-9c1,0,1.8,0.4,2.2,1.3c0.1-0.4,0.3-0.8,0.4-1.1c0.1-0.2,0.3-0.3,0.5-0.3
			c0.4,0,0.6,0.4,0.5,0.7L52.1,33c-0.9,2.5-1.7,4.6-1.7,5.7c0,0.7,0.2,1,0.7,1c1.5,0,2.7-2.7,3.5-4.5l0-0.1c0.1-0.2,0.3-0.3,0.5-0.3
			c0.1,0,0.1,0,0.2,0C55.5,35,55.7,35.2,55.7,35.4z M50.7,33.5l0.6-1.6c0-1.1-0.7-1.8-1.6-1.8c-2.3,0-4.4,5.3-4.4,7.8
			c0,1.1,0.2,1.8,1,1.8C48.2,39.7,49.7,36.1,50.7,33.5z"/>
		<path class="st3" d="M65.5,35.4c0,0.1,0,0.1,0,0.2c-1.7,3.7-2.8,5.2-4.5,5.2c-1.2,0-1.8-0.9-1.8-2.1c0-2.3,1.9-5.2,1.9-7.3
			c0-0.7-0.3-1.3-1.3-1.3c-1.5,0-3.4,3.3-4.2,5.4l-1.7,4.9c-0.1,0.3-0.4,0.4-0.7,0.3c-0.3-0.1-0.4-0.4-0.3-0.7
			c1.3-3.5,2.8-8,3.8-10.6c0.1-0.2,0.3-0.3,0.5-0.3c0.4,0,0.6,0.4,0.5,0.7l-0.2,0.5c0.7-0.7,1.5-1.2,2.3-1.2c1.8,0,2.3,1,2.3,2.3
			c0,2.2-1.9,5.4-1.9,7.3c0,0.7,0.2,1,0.7,1c1.2,0,2-1.3,3.5-4.6c0.1-0.2,0.3-0.3,0.5-0.3c0.1,0,0.1,0,0.2,0
			C65.4,35,65.5,35.2,65.5,35.4z"/>
		<path class="st3" d="M70.6,35.4c0,0.1,0,0.1,0,0.2c-1.4,3.1-2.8,5.2-5.1,5.2c-1.2,0-1.8-0.9-1.8-2.1c0-0.9,0.6-3.1,1.4-5.1
			l1.3-3.5h-1.6c-0.3,0-0.5-0.2-0.5-0.5c0-0.3,0.2-0.5,0.5-0.5h1.9c0-0.1,1.3-3.6,1.3-3.7c0.1-0.2,0.3-0.3,0.5-0.3
			c0.4,0,0.6,0.4,0.5,0.7c0.1-0.1-1,2.9-1.2,3.3h1.6c0.3,0,0.5,0.2,0.5,0.5c0,0.3-0.2,0.5-0.5,0.5h-2c-0.1,0.5-0.6,1.6-1.4,3.9
			c-1,2.9-1.3,4-1.3,4.7c0,0.7,0.3,1,0.8,1c1.8,0,3-2,4.1-4.6c0.1-0.2,0.3-0.3,0.5-0.3c0.1,0,0.1,0,0.2,0
			C70.5,35,70.6,35.2,70.6,35.4z"/>
	</g>
	<g class="st1">
		<path class="st2" d="M15.8,53.7c0,0.6-0.1,1.1-0.2,1.4c-0.1,0.4-0.4,0.7-0.6,0.9c-0.3,0.2-0.7,0.5-1.2,0.7l-0.3-0.8
			c0.3-0.1,0.6-0.3,0.7-0.4c0.2-0.1,0.3-0.3,0.4-0.6c0.1-0.3,0.1-0.6,0.1-1.1v-6.2h1.1V53.7z M15.8,44.7c0.1,0.1,0.2,0.3,0.2,0.6
			c0,0.2-0.1,0.4-0.2,0.5c-0.1,0.1-0.3,0.2-0.6,0.2c-0.2,0-0.4-0.1-0.6-0.2c-0.1-0.1-0.2-0.3-0.2-0.5c0-0.2,0.1-0.4,0.2-0.6
			c0.1-0.1,0.3-0.2,0.6-0.2C15.4,44.5,15.6,44.6,15.8,44.7z"/>
		<path class="st2" d="M22.9,54.1h-1l-0.1-1c-0.2,0.4-0.5,0.7-0.8,0.9s-0.7,0.3-1.2,0.3c-0.6,0-1-0.2-1.3-0.5
			c-0.3-0.3-0.5-0.8-0.5-1.5v-4.7h1.1v4.5c0,0.4,0.1,0.8,0.2,0.9s0.4,0.3,0.8,0.3c0.6,0,1.2-0.4,1.6-1.1v-4.6h1.1V54.1z"/>
		<path class="st2" d="M26.4,44.7c0.1,0.1,0.2,0.3,0.2,0.6c0,0.2-0.1,0.4-0.2,0.5s-0.3,0.2-0.6,0.2c-0.2,0-0.4-0.1-0.6-0.2
			c-0.1-0.1-0.2-0.3-0.2-0.5c0-0.2,0.1-0.4,0.2-0.6c0.1-0.1,0.3-0.2,0.6-0.2C26.1,44.5,26.3,44.6,26.4,44.7z M26.4,47.6v6.5h-1.1
			v-6.5H26.4z"/>
		<path class="st2" d="M32.2,47.6c0.3,0.1,0.6,0.3,0.9,0.5l-0.5,0.7c-0.2-0.2-0.5-0.3-0.7-0.4c-0.2-0.1-0.5-0.1-0.7-0.1
			c-0.5,0-0.9,0.2-1.2,0.6c-0.3,0.4-0.4,1-0.4,1.9s0.1,1.4,0.4,1.8s0.7,0.6,1.2,0.6c0.3,0,0.5,0,0.7-0.1s0.5-0.2,0.7-0.4l0.5,0.7
			c-0.6,0.5-1.3,0.7-2,0.7c-0.9,0-1.6-0.3-2.1-0.9s-0.8-1.4-0.8-2.4c0-0.7,0.1-1.3,0.3-1.8c0.2-0.5,0.6-0.9,1-1.2s0.9-0.4,1.5-0.4
			C31.5,47.5,31.8,47.5,32.2,47.6z"/>
		<path class="st2" d="M39.3,51.3h-4.1c0,0.7,0.2,1.2,0.5,1.6c0.3,0.3,0.7,0.5,1.2,0.5c0.3,0,0.6,0,0.9-0.1c0.3-0.1,0.5-0.2,0.8-0.4
			l0.5,0.7c-0.7,0.5-1.4,0.8-2.3,0.8c-0.9,0-1.6-0.3-2.1-0.9s-0.8-1.4-0.8-2.4c0-0.7,0.1-1.3,0.3-1.8c0.2-0.5,0.5-0.9,0.9-1.2
			c0.4-0.3,0.9-0.4,1.4-0.4c0.9,0,1.5,0.3,2,0.8c0.5,0.6,0.7,1.3,0.7,2.4C39.3,50.9,39.3,51.1,39.3,51.3z M38.2,50.3
			c0-0.6-0.1-1.1-0.4-1.5c-0.3-0.3-0.6-0.5-1.1-0.5c-0.9,0-1.4,0.7-1.5,2L38.2,50.3L38.2,50.3z"/>
		<path class="st2" d="M47.8,47.6c0.3,0.1,0.6,0.3,0.9,0.5l-0.5,0.7c-0.2-0.2-0.5-0.3-0.7-0.4c-0.2-0.1-0.5-0.1-0.7-0.1
			c-0.5,0-0.9,0.2-1.2,0.6c-0.3,0.4-0.4,1-0.4,1.9s0.1,1.4,0.4,1.8s0.7,0.6,1.2,0.6c0.3,0,0.5,0,0.7-0.1c0.2-0.1,0.5-0.2,0.7-0.4
			l0.5,0.7c-0.6,0.5-1.3,0.7-2,0.7c-0.9,0-1.6-0.3-2.1-0.9c-0.5-0.6-0.8-1.4-0.8-2.4c0-0.7,0.1-1.3,0.3-1.8c0.2-0.5,0.6-0.9,1-1.2
			c0.4-0.3,0.9-0.4,1.5-0.4C47.1,47.5,47.4,47.5,47.8,47.6z"/>
		<path class="st2" d="M54.5,48.4c0.5,0.6,0.8,1.4,0.8,2.5c0,0.7-0.1,1.3-0.3,1.8c-0.2,0.5-0.6,0.9-1,1.2c-0.4,0.3-1,0.4-1.6,0.4
			c-0.9,0-1.6-0.3-2.1-0.9c-0.5-0.6-0.8-1.4-0.8-2.5c0-0.7,0.1-1.3,0.3-1.8s0.6-0.9,1-1.2c0.4-0.3,1-0.4,1.6-0.4
			C53.3,47.5,54,47.8,54.5,48.4z M50.7,50.9c0,1.6,0.6,2.5,1.7,2.5s1.7-0.8,1.7-2.5c0-1.6-0.6-2.5-1.7-2.5
			C51.3,48.4,50.7,49.2,50.7,50.9z"/>
		<path class="st2" d="M58,52.8c0.2,0.2,0.2,0.4,0.2,0.6c0,0.2-0.1,0.4-0.2,0.6s-0.4,0.3-0.6,0.3c-0.2,0-0.4-0.1-0.6-0.3
			s-0.2-0.4-0.2-0.6c0-0.2,0.1-0.4,0.2-0.6s0.4-0.2,0.6-0.2C57.6,52.6,57.8,52.6,58,52.8z"/>
	</g>
</g>
</svg>
